<svg viewBox="0 0 216 52" fill="none" xmlns="http://www.w3.org/2000/svg"><path d="M76.936 24.337c0-.724-.188-1.27-.562-1.636-.366-.374-1.038-.76-2.014-1.16-1.782-.675-3.064-1.464-3.845-2.368-.782-.911-1.172-1.985-1.172-3.222 0-1.498.529-2.698 1.587-3.601 1.066-.912 2.417-1.368 4.052-1.368 1.09 0 2.063.232 2.918.696a4.708 4.708 0 011.965 1.941c.464.838.696 1.79.696 2.857h-3.577c0-.83-.179-1.461-.537-1.892-.35-.44-.858-.66-1.526-.66-.626 0-1.115.188-1.465.562-.35.366-.524.862-.524 1.49 0 .487.195.93.586 1.33.39.39 1.082.797 2.075 1.22 1.733.627 2.99 1.396 3.772 2.308.79.911 1.184 2.07 1.184 3.479 0 1.546-.493 2.754-1.477 3.625-.985.87-2.324 1.306-4.016 1.306-1.148 0-2.194-.236-3.138-.708a5.35 5.35 0 01-2.221-2.026c-.53-.88-.794-1.917-.794-3.113h3.601c0 1.025.2 1.77.599 2.234.398.464 1.05.696 1.953.696 1.253 0 1.88-.664 1.88-1.99zm11.157 4.907c-1.774 0-3.158-.529-4.15-1.587-.993-1.058-1.49-2.571-1.49-4.54v-1.05c0-2.084.456-3.691 1.367-4.822.912-1.132 2.218-1.697 3.919-1.697 1.66 0 2.91.533 3.747 1.599.838 1.058 1.266 2.629 1.282 4.712v1.697h-6.873c.05.976.265 1.692.648 2.148.382.448.972.671 1.77.671 1.155 0 2.12-.394 2.893-1.184l1.355 2.088c-.424.586-1.038 1.062-1.844 1.428a6.388 6.388 0 01-2.624.537zM85.92 21.14h3.454v-.318c-.016-.79-.146-1.387-.39-1.794-.244-.407-.667-.61-1.27-.61-.602 0-1.041.215-1.318.646-.269.432-.427 1.123-.476 2.076zm15.32-2.014l-1.148-.098c-.944 0-1.583.415-1.916 1.245V29h-3.467V15.792h3.26l.097 1.428c.545-1.115 1.298-1.672 2.258-1.672.391 0 .708.053.952.159l-.036 3.418zm6.335 4.992l1.673-8.325h3.601L109.223 29h-3.296l-3.637-13.208h3.613l1.672 8.325zM118.098 29h-3.467V15.792h3.467V29zm-3.626-16.626c0-.537.171-.976.513-1.318.342-.342.797-.513 1.367-.513s1.025.17 1.367.513c.342.342.513.78.513 1.318 0 .529-.171.968-.513 1.318-.333.35-.789.525-1.367.525s-1.038-.175-1.379-.525c-.334-.35-.501-.789-.501-1.318zm11.072 14.001c1.001 0 1.51-.65 1.526-1.953h3.247c-.016 1.44-.46 2.604-1.331 3.492-.87.887-1.993 1.33-3.369 1.33-1.701 0-2.999-.529-3.894-1.587-.895-1.058-1.351-2.616-1.367-4.675v-1.05c0-2.075.439-3.658 1.318-4.748.887-1.09 2.194-1.636 3.919-1.636 1.456 0 2.604.451 3.442 1.355.838.895 1.266 2.169 1.282 3.82h-3.247c-.008-.74-.13-1.31-.366-1.708-.236-.4-.627-.599-1.172-.599-.602 0-1.034.216-1.294.648-.261.423-.399 1.249-.415 2.477v1.343c0 1.075.053 1.827.158 2.259.106.423.281.736.525.94.244.195.59.293 1.038.293zm12.06 2.87c-1.774 0-3.157-.53-4.15-1.588-.993-1.058-1.489-2.571-1.489-4.54v-1.05c0-2.084.456-3.691 1.367-4.822.911-1.132 2.218-1.697 3.918-1.697 1.661 0 2.91.533 3.748 1.599.838 1.058 1.266 2.629 1.282 4.712v1.697h-6.873c.049.976.265 1.692.647 2.148.383.448.973.671 1.77.671 1.156 0 2.12-.394 2.893-1.184l1.355 2.088c-.423.586-1.037 1.062-1.843 1.428a6.388 6.388 0 01-2.625.537zm-2.172-8.106h3.454v-.318c-.016-.79-.146-1.387-.39-1.794-.245-.407-.668-.61-1.27-.61s-1.042.215-1.318.646c-.269.432-.428 1.123-.476 2.076zM150.166 29V11.227h4.699c2.075 0 3.727.659 4.956 1.977 1.237 1.319 1.868 3.125 1.892 5.42v2.88c0 2.336-.618 4.172-1.855 5.506-1.229 1.327-2.926 1.99-5.09 1.99h-4.602zm3.588-14.783v11.804h1.075c1.196 0 2.038-.313 2.526-.94.489-.634.745-1.725.77-3.27v-3.09c0-1.66-.232-2.815-.696-3.466-.464-.66-1.254-1.005-2.368-1.038h-1.307zm15.711 15.027c-1.774 0-3.158-.529-4.151-1.587-.992-1.058-1.489-2.571-1.489-4.54v-1.05c0-2.084.456-3.691 1.367-4.822.912-1.132 2.218-1.697 3.919-1.697 1.66 0 2.909.533 3.747 1.599.839 1.058 1.266 2.629 1.282 4.712v1.697h-6.872c.048.976.264 1.692.647 2.148.382.448.972.671 1.77.671 1.155 0 2.12-.394 2.893-1.184l1.355 2.088c-.424.586-1.038 1.062-1.844 1.428a6.383 6.383 0 01-2.624.537zm-2.173-8.105h3.455v-.318c-.017-.79-.147-1.387-.391-1.794-.244-.407-.667-.61-1.27-.61-.602 0-1.041.215-1.318.646-.268.432-.427 1.123-.476 2.076zm12.964 2.978l1.672-8.325h3.601L181.904 29h-3.296l-3.638-13.208h3.613l1.673 8.325zM190.778 29h-3.466V15.792h3.466V29zm-3.625-16.626c0-.537.171-.976.513-1.318.341-.342.797-.513 1.367-.513.569 0 1.025.17 1.367.513.342.342.513.78.513 1.318 0 .529-.171.968-.513 1.318-.334.35-.789.525-1.367.525s-1.038-.175-1.38-.525c-.333-.35-.5-.789-.5-1.318zm11.072 14.001c1.001 0 1.509-.65 1.525-1.953h3.248c-.017 1.44-.46 2.604-1.331 3.492-.871.887-1.994 1.33-3.369 1.33-1.701 0-2.999-.529-3.894-1.587-.895-1.058-1.351-2.616-1.367-4.675v-1.05c0-2.075.439-3.658 1.318-4.748.887-1.09 2.193-1.636 3.918-1.636 1.457 0 2.605.451 3.443 1.355.838.895 1.265 2.169 1.282 3.82h-3.248c-.008-.74-.13-1.31-.366-1.708-.236-.4-.626-.599-1.172-.599-.602 0-1.033.216-1.294.648-.26.423-.398 1.249-.415 2.477v1.343c0 1.075.053 1.827.159 2.259.106.423.281.736.525.94.244.195.59.293 1.038.293zm12.06 2.87c-1.774 0-3.157-.53-4.15-1.588-.993-1.058-1.489-2.571-1.489-4.54v-1.05c0-2.084.455-3.691 1.367-4.822.911-1.132 2.217-1.697 3.918-1.697 1.66 0 2.909.533 3.748 1.599.838 1.058 1.265 2.629 1.281 4.712v1.697h-6.872c.049.976.264 1.692.647 2.148.382.448.972.671 1.77.671 1.155 0 2.12-.394 2.893-1.184l1.355 2.088c-.423.586-1.038 1.062-1.843 1.428a6.392 6.392 0 01-2.625.537zm-2.173-8.106h3.455v-.318c-.016-.79-.147-1.387-.391-1.794-.244-.407-.667-.61-1.269-.61-.602 0-1.042.215-1.319.646-.268.432-.427 1.123-.476 2.076z" fill="#203C42"/><path d="M32.067 13.867c1.128 0 2.081.727 2.44 1.733h8.986a2.596 2.596 0 012.44-1.733c1.434 0 2.6 1.166 2.6 2.6 0 1.433-1.166 2.6-2.6 2.6a2.597 2.597 0 01-2.44-1.734h-8.987a2.597 2.597 0 01-2.44 1.733 2.603 2.603 0 01-2.6-2.6c0-1.433 1.167-2.6 2.6-2.6zm13.866 3.466a.868.868 0 000-1.733.867.867 0 000 1.733zm-13.866 0a.868.868 0 10-.002-1.735.868.868 0 00.002 1.735z" fill="#00B2FF"/><path d="M25.133 19.226v-5.36c0-.23.091-.45.254-.612l3.467-3.467a.864.864 0 01.613-.254h2.76a2.596 2.596 0 012.44-1.733c1.433 0 2.6 1.166 2.6 2.6 0 1.433-1.167 2.6-2.6 2.6a2.596 2.596 0 01-2.44-1.733h-2.402l-2.958 2.958v5a2.596 2.596 0 011.733 2.441c0 1.434-1.167 2.6-2.6 2.6a2.603 2.603 0 01-2.6-2.6c0-1.128.727-2.081 1.733-2.44zm9.534-7.96a.868.868 0 10-.002-1.735.868.868 0 00.002 1.736zM26 22.534a.867.867 0 10-.002-1.735.867.867 0 00.002 1.735zm-16.467-.001c.4 0 .775.098 1.114.26l1.486-1.485V13c0-.23.091-.45.254-.613l8.674-8.673A2.556 2.556 0 0120.8 2.6c0-1.433 1.166-2.6 2.6-2.6C24.834 0 26 1.167 26 2.6s-1.166 2.6-2.6 2.6c-.4 0-.775-.098-1.114-.261l-8.42 8.42v8.307c0 .23-.09.451-.253.613l-1.74 1.74c.162.34.26.714.26 1.114 0 1.433-1.166 2.6-2.6 2.6a2.603 2.603 0 01-2.6-2.6c0-1.433 1.167-2.6 2.6-2.6zM23.4 3.467a.868.868 0 000-1.734.868.868 0 000 1.734zM9.533 26a.868.868 0 10-.001-1.735A.868.868 0 009.533 26zm-7.8-13.707V8.667c0-.231.091-.451.254-.613l6.067-6.067a.864.864 0 01.613-.254h4.492A2.597 2.597 0 0115.6 0c1.433 0 2.6 1.167 2.6 2.6s-1.167 2.6-2.6 2.6a2.597 2.597 0 01-2.44-1.733H9.024L3.467 9.025v3.268a2.596 2.596 0 011.733 2.44c0 1.433-1.167 2.6-2.6 2.6a2.603 2.603 0 01-2.6-2.6c0-1.128.727-2.082 1.733-2.44zM15.6 3.467a.867.867 0 10-.002-1.735.867.867 0 00.002 1.735zM2.6 15.6a.867.867 0 10-.002-1.735A.867.867 0 002.6 15.6zm11.266 31.36V34.507a2.597 2.597 0 01-1.733-2.44c0-1.434 1.167-2.6 2.6-2.6 1.129 0 2.082.726 2.44 1.733h8.986a2.597 2.597 0 012.441-1.734c1.128 0 2.082.727 2.44 1.733h5.001l3.22-3.22A2.557 2.557 0 0139 26.867c0-1.433 1.166-2.6 2.6-2.6 1.433 0 2.6 1.167 2.6 2.6 0 1.434-1.167 2.6-2.6 2.6-.4 0-.775-.098-1.114-.26l-3.473 3.473a.864.864 0 01-.613.254h-5.36a2.597 2.597 0 01-2.44 1.733 2.597 2.597 0 01-2.44-1.733h-8.987a2.598 2.598 0 01-1.574 1.574V46.96a2.596 2.596 0 011.733 2.44c0 1.434-1.166 2.6-2.6 2.6a2.603 2.603 0 01-2.6-2.6c0-1.128.728-2.082 1.734-2.44zM41.6 27.732a.867.867 0 10-.002-1.735.867.867 0 00.002 1.735zm-13 5.2a.868.868 0 10-.002-1.735.868.868 0 00.002 1.735zM14.733 50.266a.868.868 0 000-1.733.868.868 0 000 1.733zm0-17.333a.868.868 0 000-1.733.868.868 0 000 1.733z" fill="#00B2FF"/><path d="M18.2 17.492v-2.759c0-.23.091-.45.254-.613L28.86 3.714A2.556 2.556 0 0128.6 2.6c0-1.433 1.166-2.6 2.6-2.6 1.128 0 2.082.727 2.44 1.733h3.627c.478 0 .866.388.866.867v2.241l3.22 3.22a2.556 2.556 0 011.114-.261c1.433 0 2.6 1.166 2.6 2.6 0 1.433-1.167 2.6-2.6 2.6a2.603 2.603 0 01-2.6-2.6c0-.4.098-.775.26-1.114l-3.473-3.473A.863.863 0 0136.4 5.2V3.467h-2.76A2.596 2.596 0 0131.2 5.2c-.4 0-.775-.098-1.114-.261L19.933 15.092v2.4a2.596 2.596 0 011.734 2.441c0 1.433-1.167 2.6-2.6 2.6a2.603 2.603 0 01-2.6-2.6c0-1.128.727-2.082 1.733-2.44zm24.267-6.226a.868.868 0 10-.002-1.735.868.868 0 00.002 1.736zM31.2 3.467a.868.868 0 000-1.733.868.868 0 000 1.734zM19.067 20.8a.868.868 0 10-.002-1.735.868.868 0 00.002 1.735z" fill="#00B2FF"/><path d="M20.8 24.266c1.128 0 2.082.727 2.44 1.734h10.201l4.946-4.946A.864.864 0 0139 20.8h9.175l2.092-2.092v-7.083L43.58 4.94c-.338.163-.713.26-1.113.26a2.603 2.603 0 01-2.6-2.599c0-1.433 1.166-2.6 2.6-2.6 1.433 0 2.6 1.167 2.6 2.6 0 .4-.098.775-.261 1.114l6.94 6.94a.863.863 0 01.254.613v7.8c0 .23-.091.45-.254.612l-2.6 2.6a.864.864 0 01-.613.254H39.36l-4.946 4.946a.864.864 0 01-.613.254H23.24a2.596 2.596 0 01-2.44 1.733 2.603 2.603 0 01-2.6-2.6c0-1.433 1.166-2.6 2.6-2.6zM42.467 1.733a.868.868 0 10.001 1.735.868.868 0 00-.001-1.735zm-21.667 26a.868.868 0 000-1.733.868.868 0 000 1.733zM2.6 20.8c.4 0 .775.098 1.114.26l3.22-3.219v-5A2.596 2.596 0 015.2 10.4c0-1.434 1.167-2.6 2.6-2.6s2.6 1.166 2.6 2.6a2.596 2.596 0 01-1.733 2.44v5.36c0 .23-.091.45-.254.613l-3.474 3.473c.163.339.261.713.261 1.114a2.597 2.597 0 01-1.733 2.44v.668l6.679 6.679a.863.863 0 01.254.613v1.026a2.596 2.596 0 011.733 2.44 2.596 2.596 0 01-1.733 2.44v2.054a2.596 2.596 0 011.733 2.44c0 1.434-1.166 2.6-2.6 2.6a2.603 2.603 0 01-2.6-2.6c0-1.128.727-2.082 1.734-2.44v-2.053a2.596 2.596 0 01-1.734-2.44c0-1.13.727-2.083 1.734-2.441v-.668l-6.68-6.679a.863.863 0 01-.254-.613V25.84A2.597 2.597 0 010 23.4c0-1.434 1.167-2.6 2.6-2.6zm5.2-9.534a.867.867 0 10-.002-1.734.867.867 0 00.002 1.735zm1.733 33.8a.868.868 0 000-1.733.867.867 0 000 1.733zm0-6.933a.868.868 0 000-1.733.867.867 0 000 1.733zM2.6 24.266a.867.867 0 10-.002-1.735.867.867 0 00.002 1.735z" fill="#00B2FF"/></svg>